<svg width="266" height="266" viewBox="0 0 266 266" fill="none" xmlns="http://www.w3.org/2000/svg">
<rect x="0.971375" y="2.28711" width="262.745" height="262.745" rx="131.372" transform="rotate(-0.286905 0.971375 2.28711)" fill="#1B1B1B"/>
<g filter="url(#filter0_d_115_44)">
<path d="M55.5312 60.2812C55.9271 60.2812 56.2188 60.4062 56.4062 60.6562C56.6146 60.9062 56.7188 61.1875 56.7188 61.5C56.7188 61.8125 56.6146 62.1042 56.4062 62.375C56.2188 62.6458 55.9271 62.7812 55.5312 62.7812C55.3021 62.8229 55.1458 62.8646 55.0625 62.9062C54.625 63.0104 54.2188 63.1354 53.8438 63.2812C52.8646 63.6146 51.8854 63.9896 50.9062 64.4062C50.3438 64.6771 49.7812 64.9583 49.2188 65.25C48.6771 65.5208 48.1354 65.8229 47.5938 66.1562C47.4688 66.2396 47.3438 66.3229 47.2188 66.4062C47.0938 66.4688 46.9792 66.5417 46.875 66.625C48.125 67.3333 49.4375 67.9479 50.8125 68.4688C52.2083 68.9688 53.5729 69.5417 54.9062 70.1875C55.2188 70.3542 55.4167 70.6146 55.5 70.9688C55.5833 71.3021 55.5417 71.6146 55.375 71.9062C55.1875 72.2188 54.9271 72.4167 54.5938 72.5C54.2812 72.5625 53.9688 72.5104 53.6562 72.3438C52.8646 71.9688 52.0521 71.6146 51.2188 71.2812C50.4062 70.9479 49.5833 70.625 48.75 70.3125C47.9375 69.9792 47.125 69.6354 46.3125 69.2812C45.5 68.9271 44.7083 68.5312 43.9375 68.0938C43.6667 67.9479 43.4688 67.6979 43.3438 67.3438C43.2396 66.9896 43.2917 66.6771 43.5 66.4062C43.875 65.9062 44.3021 65.4583 44.7812 65.0625C45.2604 64.6667 45.7708 64.3021 46.3125 63.9688C46.8542 63.6354 47.4062 63.3333 47.9688 63.0625C48.5521 62.7917 49.1146 62.5312 49.6562 62.2812C50.2604 62.0104 50.8646 61.7604 51.4688 61.5312C52.0729 61.2812 52.6771 61.0417 53.2812 60.8125C53.6354 60.7083 54 60.6042 54.375 60.5C54.7708 60.375 55.1562 60.3021 55.5312 60.2812ZM64.8438 66.4375C64.3438 65.9167 63.8125 65.4375 63.25 65C62.6875 64.5417 62.125 64.0938 61.5625 63.6562C61.0208 63.1979 60.4896 62.7292 59.9688 62.25C59.4479 61.75 58.9688 61.2083 58.5312 60.625C58.0729 60.0208 57.7083 59.3646 57.4375 58.6562C57.1875 57.9271 57.1458 57.1771 57.3125 56.4062C57.4792 55.5729 57.8854 54.8438 58.5312 54.2188C59.1771 53.5938 59.875 53.1042 60.625 52.75C61.4375 52.3958 62.2604 52.1562 63.0938 52.0312C63.9271 51.8854 64.7708 51.8021 65.625 51.7812C66.4792 51.7396 67.3333 51.7396 68.1875 51.7812C69.0625 51.8021 69.9271 51.7917 70.7812 51.75C71.1771 51.7292 71.4688 51.8438 71.6562 52.0938C71.8646 52.3438 71.9688 52.625 71.9688 52.9375C71.9688 53.25 71.8646 53.5417 71.6562 53.8125C71.4688 54.0625 71.1771 54.1979 70.7812 54.2188C70.1771 54.2604 69.5729 54.2812 68.9688 54.2812C68.3854 54.2604 67.7917 54.2396 67.1875 54.2188C66.375 54.1979 65.5521 54.2083 64.7188 54.25C63.9062 54.2917 63.1042 54.4583 62.3125 54.75C62.0417 54.8542 61.75 54.9896 61.4375 55.1562C61.125 55.3021 60.8333 55.4896 60.5625 55.7188C60.3125 55.9479 60.1042 56.1979 59.9375 56.4688C59.7708 56.7396 59.6979 57.0312 59.7188 57.3438C59.7396 57.6354 59.8125 57.9271 59.9375 58.2188C60.0625 58.4896 60.2188 58.7604 60.4062 59.0312C60.6146 59.3021 60.8333 59.5625 61.0625 59.8125C61.2917 60.0625 61.5104 60.2917 61.7188 60.5C62.1979 60.9792 62.6979 61.4167 63.2188 61.8125C63.7396 62.2083 64.2604 62.6146 64.7812 63.0312C65.3229 63.4688 65.8646 63.9583 66.4062 64.5C66.9688 65.0208 67.4479 65.5938 67.8438 66.2188C68.2604 66.8229 68.5625 67.4688 68.75 68.1562C68.9583 68.8438 68.9896 69.5729 68.8438 70.3438C68.6979 71.0729 68.4167 71.6979 68 72.2188C67.6042 72.7188 67.125 73.1771 66.5625 73.5938C66.0208 73.9896 65.4375 74.3542 64.8125 74.6875C64.2083 75 63.625 75.3229 63.0625 75.6562C62.7083 75.8646 62.375 75.9062 62.0625 75.7812C61.7708 75.6562 61.5417 75.4583 61.375 75.1875C61.2292 74.9167 61.1667 74.625 61.1875 74.3125C61.2292 73.9792 61.4271 73.7083 61.7812 73.5C62.2812 73.2083 62.7812 72.9375 63.2812 72.6875C63.7812 72.4375 64.2708 72.1562 64.75 71.8438C65.2083 71.5521 65.6042 71.2083 65.9375 70.8125C66.2917 70.3958 66.4688 69.9167 66.4688 69.375C66.4479 68.8333 66.2708 68.3125 65.9375 67.8125C65.625 67.3125 65.2604 66.8542 64.8438 66.4375ZM90.7188 62.9688C90.5938 63.5521 90.4479 64.1354 90.2812 64.7188C90.1146 65.2812 89.9271 65.8438 89.7188 66.4062C89.4896 66.9896 89.2708 67.5729 89.0625 68.1562C88.8542 68.7188 88.6042 69.2708 88.3125 69.8125C88.0417 70.3333 87.75 70.8438 87.4375 71.3438C87.125 71.8229 86.8542 72.3333 86.625 72.875C86.4167 73.3542 86.1979 73.8333 85.9688 74.3125C85.7604 74.7708 85.4896 75.2083 85.1562 75.625C84.9896 75.8333 84.8021 75.9583 84.5938 76C84.3854 76.0417 84.1771 76.0208 83.9688 75.9375C83.7812 75.875 83.5938 75.7604 83.4062 75.5938C83.2396 75.4271 83.125 75.25 83.0625 75.0625C82.7083 74.0833 82.4479 73.1042 82.2812 72.125C82.1146 71.125 81.8958 70.125 81.625 69.125C81.5625 68.8333 81.4896 68.5521 81.4062 68.2812C81.3438 68.0104 81.2708 67.7396 81.1875 67.4688C81.0208 67.9479 80.8333 68.4167 80.625 68.875C80.4375 69.3333 80.2292 69.8021 80 70.2812C79.75 70.7604 79.5 71.25 79.25 71.75C79 72.25 78.7396 72.7396 78.4688 73.2188C78.2396 73.6979 77.9688 74.1458 77.6562 74.5625C77.3438 74.9583 76.9688 75.3021 76.5312 75.5938C76.1771 75.8229 75.8125 75.8438 75.4375 75.6562C75.0833 75.4688 74.8438 75.1979 74.7188 74.8438C74.4062 73.9062 74.125 72.9583 73.875 72C73.625 71.0208 73.375 70.0521 73.125 69.0938C72.875 68.1146 72.6146 67.1562 72.3438 66.2188C72.0729 65.2604 71.7604 64.3125 71.4062 63.375C71.2812 63.0625 71.3125 62.7604 71.5 62.4688C71.7083 62.1562 71.9583 61.9479 72.25 61.8438C72.6042 61.7396 72.9167 61.7812 73.1875 61.9688C73.4792 62.1562 73.6771 62.4062 73.7812 62.7188C74.3646 64.2188 74.8438 65.7292 75.2188 67.25C75.5938 68.7708 75.9896 70.3021 76.4062 71.8438L76.5938 71.4688C76.8229 71.0104 77.0417 70.5625 77.25 70.125C77.4792 69.6875 77.7083 69.2396 77.9375 68.7812C78.1875 68.3021 78.4062 67.8125 78.5938 67.3125C78.8021 66.7917 78.9896 66.2708 79.1562 65.75C79.3229 65.25 79.4792 64.75 79.625 64.25C79.7708 63.75 79.8646 63.2292 79.9062 62.6875C79.9271 62.3542 80.0417 62.0833 80.25 61.875C80.4792 61.6667 80.7292 61.5417 81 61.5C81.2917 61.4583 81.5625 61.5104 81.8125 61.6562C82.0625 61.7812 82.2396 62.0208 82.3438 62.375C82.6354 63.4375 82.9375 64.4896 83.25 65.5312C83.5625 66.5729 83.8438 67.625 84.0938 68.6875C84.1979 69.125 84.2917 69.5625 84.375 70C84.4583 70.4167 84.5521 70.8333 84.6562 71.25C84.8854 70.75 85.1458 70.2708 85.4375 69.8125C85.75 69.3333 86.0312 68.8438 86.2812 68.3438C86.7396 67.4062 87.1354 66.4271 87.4688 65.4062C87.8229 64.3646 88.1042 63.3333 88.3125 62.3125C88.375 61.9583 88.5625 61.6979 88.875 61.5312C89.2083 61.3646 89.5312 61.3333 89.8438 61.4375C90.1979 61.5417 90.4479 61.7396 90.5938 62.0312C90.7396 62.3229 90.7812 62.6354 90.7188 62.9688ZM94.6562 74.5938C94.6562 74.9896 94.5208 75.2812 94.25 75.4688C94 75.6771 93.7188 75.7812 93.4062 75.7812C93.0938 75.7812 92.8125 75.6771 92.5625 75.4688C92.3125 75.2812 92.1875 74.9896 92.1875 74.5938C92.1875 72.9688 92.375 71.4062 92.75 69.9062C93.125 68.4062 93.5938 66.9167 94.1562 65.4375C94.0104 65.1667 93.9688 64.8646 94.0312 64.5312C94.1562 64.0938 94.4271 63.8229 94.8438 63.7188C95.2604 62.7188 95.6875 61.7292 96.125 60.75C96.5833 59.75 97.0208 58.75 97.4375 57.75C97.8542 56.75 98.2396 55.7396 98.5938 54.7188C98.9479 53.6979 99.2396 52.6562 99.4688 51.5938C99.5312 51.2812 99.6562 51.0104 99.8438 50.7812C100.052 50.5521 100.333 50.4375 100.688 50.4375C101.021 50.4375 101.323 50.5625 101.594 50.8125C101.865 51.0417 101.979 51.3333 101.938 51.6875C101.875 52.8958 101.896 54.0104 102 55.0312C102.104 56.0312 102.26 57.0312 102.469 58.0312C102.677 59.0104 102.906 60 103.156 61C103.427 61.9792 103.677 62.9583 103.906 63.9375C104.135 64.875 104.344 65.8125 104.531 66.75C104.719 67.6875 105.021 68.5938 105.438 69.4688C105.646 69.9062 105.865 70.3333 106.094 70.75C106.323 71.1458 106.573 71.5521 106.844 71.9688C107.094 72.3438 107.323 72.7396 107.531 73.1562C107.74 73.5521 107.885 73.9896 107.969 74.4688C108.01 74.8021 107.958 75.1146 107.812 75.4062C107.688 75.6979 107.448 75.8958 107.094 76C106.802 76.0833 106.49 76.0417 106.156 75.875C105.823 75.7083 105.625 75.4583 105.562 75.125C105.479 74.6458 105.312 74.2188 105.062 73.8438C104.833 73.4688 104.594 73.0833 104.344 72.6875C104.052 72.2292 103.781 71.7708 103.531 71.3125C103.302 70.8333 103.094 70.3438 102.906 69.8438C102.698 69.3229 102.521 68.8021 102.375 68.2812C102.229 67.7396 102.094 67.1979 101.969 66.6562C101.031 66.5938 100.104 66.5521 99.1875 66.5312C98.2917 66.4896 97.3854 66.4167 96.4688 66.3125C95.9688 67.6458 95.5417 69 95.1875 70.375C94.8542 71.75 94.6771 73.1562 94.6562 74.5938ZM97.5938 63.5312C97.5521 63.5938 97.5208 63.6667 97.5 63.75C97.5 63.8125 97.4792 63.875 97.4375 63.9375C98.1042 64 98.7604 64.0417 99.4062 64.0625C100.052 64.0625 100.708 64.0833 101.375 64.125C101.146 63.125 100.896 62.1354 100.625 61.1562C100.375 60.1562 100.146 59.1458 99.9375 58.125C99.5625 59.0417 99.1771 59.9479 98.7812 60.8438C98.3854 61.7188 97.9896 62.6146 97.5938 63.5312ZM110.312 62.2812C110.333 61.8854 110.479 61.5938 110.75 61.4062C111.021 61.1979 111.312 61.0938 111.625 61.0938C111.938 61.0938 112.208 61.1979 112.438 61.4062C112.688 61.5938 112.802 61.8854 112.781 62.2812C112.781 62.4062 112.771 62.5417 112.75 62.6875C112.75 62.8125 112.75 62.9375 112.75 63.0625C113.417 62.7292 114.115 62.4479 114.844 62.2188C115.594 61.9688 116.333 61.8125 117.062 61.75C117.812 61.6875 118.531 61.75 119.219 61.9375C119.927 62.1042 120.573 62.4375 121.156 62.9375C121.448 63.2083 121.573 63.5 121.531 63.8125C121.51 64.125 121.385 64.3958 121.156 64.625C120.948 64.8333 120.677 64.9688 120.344 65.0312C120.01 65.0729 119.688 64.9688 119.375 64.7188C119.146 64.5312 118.885 64.3958 118.594 64.3125C118.323 64.2292 118.021 64.1979 117.688 64.2188C117.375 64.2188 117.052 64.25 116.719 64.3125C116.406 64.375 116.104 64.4479 115.812 64.5312C114.708 64.8854 113.677 65.3542 112.719 65.9375C112.76 66.9583 112.823 67.9792 112.906 69C112.99 69.8542 113.062 70.7396 113.125 71.6562C113.188 72.5521 113.365 73.4062 113.656 74.2188C113.781 74.5938 113.75 74.9062 113.562 75.1562C113.396 75.4271 113.156 75.6042 112.844 75.6875C112.552 75.7708 112.24 75.75 111.906 75.625C111.594 75.5 111.375 75.25 111.25 74.875C111.083 74.3958 110.969 73.9062 110.906 73.4062C110.844 72.9062 110.781 72.4062 110.719 71.9062C110.677 71.4271 110.625 70.9479 110.562 70.4688C110.521 69.9688 110.479 69.4792 110.438 69C110.333 67.875 110.26 66.7604 110.219 65.6562C110.198 64.5312 110.229 63.4062 110.312 62.2812ZM130.594 60.5938C131.26 60.5104 131.958 60.4896 132.688 60.5312C133.417 60.5521 134.115 60.6771 134.781 60.9062C135.448 61.1146 136.052 61.4375 136.594 61.875C137.135 62.3125 137.552 62.8854 137.844 63.5938C138.052 64.0938 138.156 64.6042 138.156 65.125C138.177 65.625 138.104 66.1146 137.938 66.5938C137.792 67.0521 137.562 67.5 137.25 67.9375C136.958 68.3542 136.615 68.7396 136.219 69.0938C135.365 69.8646 134.427 70.5208 133.406 71.0625C132.385 71.6042 131.312 72.0208 130.188 72.3125C129.708 72.4375 129.208 72.5521 128.688 72.6562C128.188 72.7396 127.677 72.7812 127.156 72.7812C126.635 72.7812 126.125 72.7292 125.625 72.625C125.125 72.5 124.656 72.3021 124.219 72.0312C123.906 71.8438 123.719 71.5938 123.656 71.2812C123.531 70.9271 123.396 70.5938 123.25 70.2812C123.104 69.9688 122.958 69.6458 122.812 69.3125C122.688 68.9792 122.583 68.6458 122.5 68.3125C122.417 67.9792 122.375 67.6354 122.375 67.2812C122.375 66.5729 122.521 65.9062 122.812 65.2812C123.125 64.6354 123.542 64.0729 124.062 63.5938C124.938 62.7604 125.948 62.0938 127.094 61.5938C128.24 61.0938 129.406 60.7604 130.594 60.5938ZM134.125 63.2812C133.562 63.0729 132.958 62.9688 132.312 62.9688C131.625 62.9479 130.938 63.0208 130.25 63.1875C129.562 63.3333 128.906 63.5417 128.281 63.8125C127.698 64.0417 127.094 64.3646 126.469 64.7812C125.865 65.1771 125.417 65.6667 125.125 66.25C124.958 66.5625 124.875 66.8854 124.875 67.2188C124.896 67.5312 124.948 67.8542 125.031 68.1875C125.135 68.5 125.26 68.8229 125.406 69.1562C125.573 69.4688 125.719 69.7812 125.844 70.0938C126.177 70.1771 126.385 70.2188 126.469 70.2188C126.51 70.2396 126.562 70.25 126.625 70.25C126.688 70.25 126.74 70.25 126.781 70.25C127.198 70.2917 127.573 70.2812 127.906 70.2188C128.135 70.2188 128.427 70.1771 128.781 70.0938C129.323 69.9896 129.844 69.8542 130.344 69.6875C130.844 69.5 131.302 69.3021 131.719 69.0938C132.198 68.8646 132.667 68.6146 133.125 68.3438C133.583 68.0729 133.969 67.7917 134.281 67.5C134.49 67.3125 134.688 67.1146 134.875 66.9062C134.979 66.8021 135.052 66.7188 135.094 66.6562C135.198 66.5104 135.281 66.4062 135.344 66.3438C135.406 66.2604 135.458 66.1667 135.5 66.0625C135.583 65.9167 135.625 65.8021 135.625 65.7188C135.646 65.6771 135.656 65.625 135.656 65.5625C135.677 65.5 135.698 65.4479 135.719 65.4062V65.0625C135.698 64.9792 135.688 64.9167 135.688 64.875C135.688 64.8333 135.677 64.7917 135.656 64.75C135.594 64.6042 135.531 64.5 135.469 64.4375C135.427 64.3542 135.375 64.2708 135.312 64.1875C135.333 64.2083 135.302 64.1771 135.219 64.0938C135.156 64.0104 135.115 63.9583 135.094 63.9375L134.844 63.6875C134.74 63.625 134.625 63.5521 134.5 63.4688C134.375 63.3854 134.25 63.3229 134.125 63.2812ZM147.688 60.5938C148.354 60.5104 149.052 60.4896 149.781 60.5312C150.51 60.5521 151.208 60.6771 151.875 60.9062C152.542 61.1146 153.146 61.4375 153.688 61.875C154.229 62.3125 154.646 62.8854 154.938 63.5938C155.146 64.0938 155.25 64.6042 155.25 65.125C155.271 65.625 155.198 66.1146 155.031 66.5938C154.885 67.0521 154.656 67.5 154.344 67.9375C154.052 68.3542 153.708 68.7396 153.312 69.0938C152.458 69.8646 151.521 70.5208 150.5 71.0625C149.479 71.6042 148.406 72.0208 147.281 72.3125C146.802 72.4375 146.302 72.5521 145.781 72.6562C145.281 72.7396 144.771 72.7812 144.25 72.7812C143.729 72.7812 143.219 72.7292 142.719 72.625C142.219 72.5 141.75 72.3021 141.312 72.0312C141 71.8438 140.812 71.5938 140.75 71.2812C140.625 70.9271 140.49 70.5938 140.344 70.2812C140.198 69.9688 140.052 69.6458 139.906 69.3125C139.781 68.9792 139.677 68.6458 139.594 68.3125C139.51 67.9792 139.469 67.6354 139.469 67.2812C139.469 66.5729 139.615 65.9062 139.906 65.2812C140.219 64.6354 140.635 64.0729 141.156 63.5938C142.031 62.7604 143.042 62.0938 144.188 61.5938C145.333 61.0938 146.5 60.7604 147.688 60.5938ZM151.219 63.2812C150.656 63.0729 150.052 62.9688 149.406 62.9688C148.719 62.9479 148.031 63.0208 147.344 63.1875C146.656 63.3333 146 63.5417 145.375 63.8125C144.792 64.0417 144.188 64.3646 143.562 64.7812C142.958 65.1771 142.51 65.6667 142.219 66.25C142.052 66.5625 141.969 66.8854 141.969 67.2188C141.99 67.5312 142.042 67.8542 142.125 68.1875C142.229 68.5 142.354 68.8229 142.5 69.1562C142.667 69.4688 142.812 69.7812 142.938 70.0938C143.271 70.1771 143.479 70.2188 143.562 70.2188C143.604 70.2396 143.656 70.25 143.719 70.25C143.781 70.25 143.833 70.25 143.875 70.25C144.292 70.2917 144.667 70.2812 145 70.2188C145.229 70.2188 145.521 70.1771 145.875 70.0938C146.417 69.9896 146.938 69.8542 147.438 69.6875C147.938 69.5 148.396 69.3021 148.812 69.0938C149.292 68.8646 149.76 68.6146 150.219 68.3438C150.677 68.0729 151.062 67.7917 151.375 67.5C151.583 67.3125 151.781 67.1146 151.969 66.9062C152.073 66.8021 152.146 66.7188 152.188 66.6562C152.292 66.5104 152.375 66.4062 152.438 66.3438C152.5 66.2604 152.552 66.1667 152.594 66.0625C152.677 65.9167 152.719 65.8021 152.719 65.7188C152.74 65.6771 152.75 65.625 152.75 65.5625C152.771 65.5 152.792 65.4479 152.812 65.4062V65.0625C152.792 64.9792 152.781 64.9167 152.781 64.875C152.781 64.8333 152.771 64.7917 152.75 64.75C152.688 64.6042 152.625 64.5 152.562 64.4375C152.521 64.3542 152.469 64.2708 152.406 64.1875C152.427 64.2083 152.396 64.1771 152.312 64.0938C152.25 64.0104 152.208 63.9583 152.188 63.9375L151.938 63.6875C151.833 63.625 151.719 63.5521 151.594 63.4688C151.469 63.3854 151.344 63.3229 151.219 63.2812ZM157.312 56.9062C157.271 56.5729 157.219 56.25 157.156 55.9375C157.115 55.625 157.083 55.3125 157.062 55C157.021 54.625 157.01 54.2292 157.031 53.8125C157.073 53.3958 157.156 53 157.281 52.625C157.427 52.25 157.625 51.9167 157.875 51.625C158.125 51.3333 158.469 51.125 158.906 51C159.573 50.8125 160.25 50.8438 160.938 51.0938C161.625 51.3229 162.271 51.5833 162.875 51.875C163.458 52.1667 164.031 52.4792 164.594 52.8125C165.156 53.1458 165.74 53.4583 166.344 53.75C166.656 53.8958 166.969 54.0521 167.281 54.2188C167.594 54.3854 167.865 54.5833 168.094 54.8125C168.344 55.0208 168.542 55.2812 168.688 55.5938C168.854 55.8854 168.948 56.2292 168.969 56.625C168.99 57.0417 168.917 57.4479 168.75 57.8438C168.604 58.2396 168.448 58.625 168.281 59C167.344 61.0833 166.146 63.0312 164.688 64.8438C164.146 65.5104 163.531 66.1354 162.844 66.7188C162.177 67.2812 161.417 67.6458 160.562 67.8125C160.75 69 160.958 70.1667 161.188 71.3125C161.438 72.4583 161.719 73.6146 162.031 74.7812C162.135 75.1771 162.083 75.5 161.875 75.75C161.688 76.0208 161.448 76.1979 161.156 76.2812C160.865 76.3646 160.562 76.3438 160.25 76.2188C159.938 76.0938 159.729 75.8333 159.625 75.4375C158.958 72.8958 158.448 70.3542 158.094 67.8125C157.74 65.25 157.51 62.6458 157.406 60C157.385 59.6458 157.375 59.3021 157.375 58.9688C157.375 58.6354 157.365 58.2917 157.344 57.9375C157.344 57.7917 157.344 57.6562 157.344 57.5312C157.344 57.3854 157.333 57.25 157.312 57.125V56.9062ZM159.531 53.875C159.51 54.3333 159.531 54.8229 159.594 55.3438C159.615 55.5729 159.625 55.7188 159.625 55.7812C159.646 55.8438 159.656 55.8958 159.656 55.9375L159.75 56.5C159.812 57.125 159.844 57.7604 159.844 58.4062C159.885 59.3229 159.917 60.2396 159.938 61.1562C159.979 62.0521 160.042 62.9583 160.125 63.875C160.146 64.125 160.156 64.375 160.156 64.625C160.177 64.875 160.208 65.1146 160.25 65.3438C160.458 65.2812 160.604 65.2292 160.688 65.1875C160.771 65.125 160.854 65.0729 160.938 65.0312C161.062 64.9479 161.156 64.875 161.219 64.8125C161.74 64.3958 162.177 63.9792 162.531 63.5625C162.885 63.1458 163.219 62.7188 163.531 62.2812C164.219 61.3229 164.833 60.3333 165.375 59.3125C165.479 59.0833 165.583 58.875 165.688 58.6875C165.792 58.4792 165.896 58.2604 166 58.0312C166.042 57.9271 166.083 57.8333 166.125 57.75C166.167 57.6667 166.208 57.5729 166.25 57.4688C166.354 57.2188 166.427 57.0104 166.469 56.8438C166.469 56.6979 166.438 56.5938 166.375 56.5312C166.083 56.3646 165.865 56.25 165.719 56.1875C165.115 55.8958 164.531 55.6042 163.969 55.3125C163.406 55 162.823 54.6771 162.219 54.3438C161.927 54.1771 161.625 54.0208 161.312 53.875C161.021 53.7292 160.708 53.6042 160.375 53.5C160.312 53.4792 160.24 53.4583 160.156 53.4375C160.094 53.4167 160.031 53.4062 159.969 53.4062C159.823 53.3854 159.74 53.3854 159.719 53.4062C159.698 53.4062 159.677 53.4062 159.656 53.4062C159.615 53.4688 159.583 53.5312 159.562 53.5938C159.562 53.6562 159.552 53.7083 159.531 53.75V53.875ZM176.125 62.2188C177.104 62.5729 178.042 62.9896 178.938 63.4688C179.854 63.9271 180.677 64.5312 181.406 65.2812C181.635 65.5104 181.76 65.8125 181.781 66.1875C181.802 66.5417 181.677 66.8333 181.406 67.0625C180.594 67.7292 179.708 68.2917 178.75 68.75C177.812 69.1875 176.875 69.6562 175.938 70.1562C175.208 70.5729 174.49 71 173.781 71.4375C173.073 71.875 172.365 72.3125 171.656 72.75C171.302 72.9583 170.969 73.0104 170.656 72.9062C170.365 72.7812 170.135 72.5833 169.969 72.3125C169.823 72.0417 169.771 71.7396 169.812 71.4062C169.854 71.0729 170.042 70.8021 170.375 70.5938C171.104 70.1562 171.823 69.7188 172.531 69.2812C173.24 68.8438 173.958 68.4271 174.688 68.0312C175.292 67.6771 175.927 67.3542 176.594 67.0625C177.26 66.7708 177.896 66.4479 178.5 66.0938C178 65.7396 177.469 65.4479 176.906 65.2188C176.344 64.9688 175.76 64.7396 175.156 64.5312C174.281 64.2188 173.427 63.9062 172.594 63.5938C171.781 63.2604 170.927 62.9792 170.031 62.75C169.635 62.6458 169.375 62.4479 169.25 62.1562C169.125 61.8438 169.104 61.5417 169.188 61.25C169.271 60.9583 169.438 60.7188 169.688 60.5312C169.958 60.3229 170.292 60.2604 170.688 60.3438C171.625 60.5729 172.531 60.8646 173.406 61.2188C174.302 61.5729 175.208 61.9062 176.125 62.2188Z" fill="#00D8FF"/>
</g>
<g filter="url(#filter1_d_115_44)">
<path d="M89.5312 191.281C89.9271 191.281 90.2188 191.406 90.4062 191.656C90.6146 191.906 90.7188 192.188 90.7188 192.5C90.7188 192.812 90.6146 193.104 90.4062 193.375C90.2188 193.646 89.9271 193.781 89.5312 193.781C89.3021 193.823 89.1458 193.865 89.0625 193.906C88.625 194.01 88.2188 194.135 87.8438 194.281C86.8646 194.615 85.8854 194.99 84.9062 195.406C84.3438 195.677 83.7812 195.958 83.2188 196.25C82.6771 196.521 82.1354 196.823 81.5938 197.156C81.4688 197.24 81.3438 197.323 81.2188 197.406C81.0938 197.469 80.9792 197.542 80.875 197.625C82.125 198.333 83.4375 198.948 84.8125 199.469C86.2083 199.969 87.5729 200.542 88.9062 201.188C89.2188 201.354 89.4167 201.615 89.5 201.969C89.5833 202.302 89.5417 202.615 89.375 202.906C89.1875 203.219 88.9271 203.417 88.5938 203.5C88.2812 203.562 87.9688 203.51 87.6562 203.344C86.8646 202.969 86.0521 202.615 85.2188 202.281C84.4062 201.948 83.5833 201.625 82.75 201.312C81.9375 200.979 81.125 200.635 80.3125 200.281C79.5 199.927 78.7083 199.531 77.9375 199.094C77.6667 198.948 77.4688 198.698 77.3438 198.344C77.2396 197.99 77.2917 197.677 77.5 197.406C77.875 196.906 78.3021 196.458 78.7812 196.062C79.2604 195.667 79.7708 195.302 80.3125 194.969C80.8542 194.635 81.4062 194.333 81.9688 194.062C82.5521 193.792 83.1146 193.531 83.6562 193.281C84.2604 193.01 84.8646 192.76 85.4688 192.531C86.0729 192.281 86.6771 192.042 87.2812 191.812C87.6354 191.708 88 191.604 88.375 191.5C88.7708 191.375 89.1562 191.302 89.5312 191.281ZM100.75 182.469C100.938 182.115 101.188 181.917 101.5 181.875C101.833 181.812 102.125 181.865 102.375 182.031C102.646 182.177 102.844 182.406 102.969 182.719C103.115 183.031 103.094 183.365 102.906 183.719C101.969 185.552 101.104 187.427 100.312 189.344C99.5417 191.24 98.7917 193.156 98.0625 195.094C97.3333 197.01 96.5938 198.927 95.8438 200.844C95.0938 202.76 94.2708 204.646 93.375 206.5C93.2083 206.812 92.9479 207 92.5938 207.062C92.2604 207.146 91.9479 207.104 91.6562 206.938C91.3438 206.771 91.1562 206.521 91.0938 206.188C91.0104 205.854 91.0521 205.542 91.2188 205.25C92.1146 203.396 92.9375 201.51 93.6875 199.594C94.4375 197.677 95.1771 195.76 95.9062 193.844C96.6354 191.906 97.3854 189.99 98.1562 188.094C98.9479 186.177 99.8125 184.302 100.75 182.469ZM110.219 197.438C109.719 196.917 109.188 196.438 108.625 196C108.062 195.542 107.5 195.094 106.938 194.656C106.396 194.198 105.865 193.729 105.344 193.25C104.823 192.75 104.344 192.208 103.906 191.625C103.448 191.021 103.083 190.365 102.812 189.656C102.562 188.927 102.521 188.177 102.688 187.406C102.854 186.573 103.26 185.844 103.906 185.219C104.552 184.594 105.25 184.104 106 183.75C106.812 183.396 107.635 183.156 108.469 183.031C109.302 182.885 110.146 182.802 111 182.781C111.854 182.74 112.708 182.74 113.562 182.781C114.438 182.802 115.302 182.792 116.156 182.75C116.552 182.729 116.844 182.844 117.031 183.094C117.24 183.344 117.344 183.625 117.344 183.938C117.344 184.25 117.24 184.542 117.031 184.812C116.844 185.062 116.552 185.198 116.156 185.219C115.552 185.26 114.948 185.281 114.344 185.281C113.76 185.26 113.167 185.24 112.562 185.219C111.75 185.198 110.927 185.208 110.094 185.25C109.281 185.292 108.479 185.458 107.688 185.75C107.417 185.854 107.125 185.99 106.812 186.156C106.5 186.302 106.208 186.49 105.938 186.719C105.688 186.948 105.479 187.198 105.312 187.469C105.146 187.74 105.073 188.031 105.094 188.344C105.115 188.635 105.188 188.927 105.312 189.219C105.438 189.49 105.594 189.76 105.781 190.031C105.99 190.302 106.208 190.562 106.438 190.812C106.667 191.062 106.885 191.292 107.094 191.5C107.573 191.979 108.073 192.417 108.594 192.812C109.115 193.208 109.635 193.615 110.156 194.031C110.698 194.469 111.24 194.958 111.781 195.5C112.344 196.021 112.823 196.594 113.219 197.219C113.635 197.823 113.938 198.469 114.125 199.156C114.333 199.844 114.365 200.573 114.219 201.344C114.073 202.073 113.792 202.698 113.375 203.219C112.979 203.719 112.5 204.177 111.938 204.594C111.396 204.99 110.812 205.354 110.188 205.688C109.583 206 109 206.323 108.438 206.656C108.083 206.865 107.75 206.906 107.438 206.781C107.146 206.656 106.917 206.458 106.75 206.188C106.604 205.917 106.542 205.625 106.562 205.312C106.604 204.979 106.802 204.708 107.156 204.5C107.656 204.208 108.156 203.938 108.656 203.688C109.156 203.438 109.646 203.156 110.125 202.844C110.583 202.552 110.979 202.208 111.312 201.812C111.667 201.396 111.844 200.917 111.844 200.375C111.823 199.833 111.646 199.312 111.312 198.812C111 198.312 110.635 197.854 110.219 197.438ZM136.094 193.969C135.969 194.552 135.823 195.135 135.656 195.719C135.49 196.281 135.302 196.844 135.094 197.406C134.865 197.99 134.646 198.573 134.438 199.156C134.229 199.719 133.979 200.271 133.688 200.812C133.417 201.333 133.125 201.844 132.812 202.344C132.5 202.823 132.229 203.333 132 203.875C131.792 204.354 131.573 204.833 131.344 205.312C131.135 205.771 130.865 206.208 130.531 206.625C130.365 206.833 130.177 206.958 129.969 207C129.76 207.042 129.552 207.021 129.344 206.938C129.156 206.875 128.969 206.76 128.781 206.594C128.615 206.427 128.5 206.25 128.438 206.062C128.083 205.083 127.823 204.104 127.656 203.125C127.49 202.125 127.271 201.125 127 200.125C126.938 199.833 126.865 199.552 126.781 199.281C126.719 199.01 126.646 198.74 126.562 198.469C126.396 198.948 126.208 199.417 126 199.875C125.812 200.333 125.604 200.802 125.375 201.281C125.125 201.76 124.875 202.25 124.625 202.75C124.375 203.25 124.115 203.74 123.844 204.219C123.615 204.698 123.344 205.146 123.031 205.562C122.719 205.958 122.344 206.302 121.906 206.594C121.552 206.823 121.188 206.844 120.812 206.656C120.458 206.469 120.219 206.198 120.094 205.844C119.781 204.906 119.5 203.958 119.25 203C119 202.021 118.75 201.052 118.5 200.094C118.25 199.115 117.99 198.156 117.719 197.219C117.448 196.26 117.135 195.312 116.781 194.375C116.656 194.062 116.688 193.76 116.875 193.469C117.083 193.156 117.333 192.948 117.625 192.844C117.979 192.74 118.292 192.781 118.562 192.969C118.854 193.156 119.052 193.406 119.156 193.719C119.74 195.219 120.219 196.729 120.594 198.25C120.969 199.771 121.365 201.302 121.781 202.844L121.969 202.469C122.198 202.01 122.417 201.562 122.625 201.125C122.854 200.688 123.083 200.24 123.312 199.781C123.562 199.302 123.781 198.812 123.969 198.312C124.177 197.792 124.365 197.271 124.531 196.75C124.698 196.25 124.854 195.75 125 195.25C125.146 194.75 125.24 194.229 125.281 193.688C125.302 193.354 125.417 193.083 125.625 192.875C125.854 192.667 126.104 192.542 126.375 192.5C126.667 192.458 126.938 192.51 127.188 192.656C127.438 192.781 127.615 193.021 127.719 193.375C128.01 194.438 128.312 195.49 128.625 196.531C128.938 197.573 129.219 198.625 129.469 199.688C129.573 200.125 129.667 200.562 129.75 201C129.833 201.417 129.927 201.833 130.031 202.25C130.26 201.75 130.521 201.271 130.812 200.812C131.125 200.333 131.406 199.844 131.656 199.344C132.115 198.406 132.51 197.427 132.844 196.406C133.198 195.365 133.479 194.333 133.688 193.312C133.75 192.958 133.938 192.698 134.25 192.531C134.583 192.365 134.906 192.333 135.219 192.438C135.573 192.542 135.823 192.74 135.969 193.031C136.115 193.323 136.156 193.635 136.094 193.969ZM140.25 205.156C139.542 204.844 138.979 204.417 138.562 203.875C138.167 203.312 137.885 202.698 137.719 202.031C137.573 201.365 137.531 200.677 137.594 199.969C137.656 199.24 137.802 198.542 138.031 197.875C138.219 197.354 138.427 196.812 138.656 196.25C138.906 195.688 139.198 195.167 139.531 194.688C139.865 194.208 140.26 193.802 140.719 193.469C141.177 193.115 141.719 192.885 142.344 192.781C142.99 192.677 143.635 192.646 144.281 192.688C144.948 192.708 145.604 192.771 146.25 192.875C146.542 192.917 146.823 192.99 147.094 193.094C147.365 193.177 147.635 193.271 147.906 193.375C147.927 193.062 148.062 192.802 148.312 192.594C148.583 192.385 148.865 192.281 149.156 192.281C149.51 192.281 149.792 192.406 150 192.656C150.229 192.885 150.365 193.167 150.406 193.5C150.51 194.458 150.552 195.417 150.531 196.375C150.531 197.333 150.5 198.292 150.438 199.25C150.396 200.208 150.354 201.167 150.312 202.125C150.292 203.083 150.302 204.042 150.344 205C150.365 205.396 150.24 205.698 149.969 205.906C149.719 206.094 149.438 206.188 149.125 206.188C148.812 206.188 148.521 206.094 148.25 205.906C148 205.698 147.865 205.396 147.844 205C146.656 205.5 145.396 205.792 144.062 205.875C142.729 205.938 141.458 205.698 140.25 205.156ZM140.469 198.375C140.344 198.75 140.229 199.177 140.125 199.656C140.021 200.135 139.99 200.594 140.031 201.031C140.073 201.469 140.208 201.875 140.438 202.25C140.667 202.604 141.042 202.854 141.562 203C142.625 203.333 143.688 203.427 144.75 203.281C145.833 203.135 146.844 202.76 147.781 202.156C147.865 201.135 147.927 200.146 147.969 199.188C148.031 198.229 148.052 197.26 148.031 196.281C147.677 196.052 147.312 195.854 146.938 195.688C146.583 195.5 146.188 195.375 145.75 195.312C145.312 195.25 144.844 195.208 144.344 195.188C143.865 195.146 143.396 195.146 142.938 195.188C142.896 195.188 142.781 195.219 142.594 195.281C142.427 195.323 142.333 195.354 142.312 195.375C142.104 195.479 141.917 195.646 141.75 195.875C141.479 196.25 141.24 196.656 141.031 197.094C140.823 197.51 140.635 197.938 140.469 198.375ZM153.969 193.281C153.99 192.885 154.135 192.594 154.406 192.406C154.677 192.198 154.969 192.094 155.281 192.094C155.594 192.094 155.865 192.198 156.094 192.406C156.344 192.594 156.458 192.885 156.438 193.281C156.438 193.406 156.427 193.542 156.406 193.688C156.406 193.812 156.406 193.938 156.406 194.062C157.073 193.729 157.771 193.448 158.5 193.219C159.25 192.969 159.99 192.812 160.719 192.75C161.469 192.688 162.188 192.75 162.875 192.938C163.583 193.104 164.229 193.438 164.812 193.938C165.104 194.208 165.229 194.5 165.188 194.812C165.167 195.125 165.042 195.396 164.812 195.625C164.604 195.833 164.333 195.969 164 196.031C163.667 196.073 163.344 195.969 163.031 195.719C162.802 195.531 162.542 195.396 162.25 195.312C161.979 195.229 161.677 195.198 161.344 195.219C161.031 195.219 160.708 195.25 160.375 195.312C160.062 195.375 159.76 195.448 159.469 195.531C158.365 195.885 157.333 196.354 156.375 196.938C156.417 197.958 156.479 198.979 156.562 200C156.646 200.854 156.719 201.74 156.781 202.656C156.844 203.552 157.021 204.406 157.312 205.219C157.438 205.594 157.406 205.906 157.219 206.156C157.052 206.427 156.812 206.604 156.5 206.688C156.208 206.771 155.896 206.75 155.562 206.625C155.25 206.5 155.031 206.25 154.906 205.875C154.74 205.396 154.625 204.906 154.562 204.406C154.5 203.906 154.438 203.406 154.375 202.906C154.333 202.427 154.281 201.948 154.219 201.469C154.177 200.969 154.135 200.479 154.094 200C153.99 198.875 153.917 197.76 153.875 196.656C153.854 195.531 153.885 194.406 153.969 193.281ZM174.25 191.594C174.917 191.51 175.615 191.49 176.344 191.531C177.073 191.552 177.771 191.677 178.438 191.906C179.104 192.115 179.708 192.438 180.25 192.875C180.792 193.312 181.208 193.885 181.5 194.594C181.708 195.094 181.812 195.604 181.812 196.125C181.833 196.625 181.76 197.115 181.594 197.594C181.448 198.052 181.219 198.5 180.906 198.938C180.615 199.354 180.271 199.74 179.875 200.094C179.021 200.865 178.083 201.521 177.062 202.062C176.042 202.604 174.969 203.021 173.844 203.312C173.365 203.438 172.865 203.552 172.344 203.656C171.844 203.74 171.333 203.781 170.812 203.781C170.292 203.781 169.781 203.729 169.281 203.625C168.781 203.5 168.312 203.302 167.875 203.031C167.562 202.844 167.375 202.594 167.312 202.281C167.188 201.927 167.052 201.594 166.906 201.281C166.76 200.969 166.615 200.646 166.469 200.312C166.344 199.979 166.24 199.646 166.156 199.312C166.073 198.979 166.031 198.635 166.031 198.281C166.031 197.573 166.177 196.906 166.469 196.281C166.781 195.635 167.198 195.073 167.719 194.594C168.594 193.76 169.604 193.094 170.75 192.594C171.896 192.094 173.062 191.76 174.25 191.594ZM177.781 194.281C177.219 194.073 176.615 193.969 175.969 193.969C175.281 193.948 174.594 194.021 173.906 194.188C173.219 194.333 172.562 194.542 171.938 194.812C171.354 195.042 170.75 195.365 170.125 195.781C169.521 196.177 169.073 196.667 168.781 197.25C168.615 197.562 168.531 197.885 168.531 198.219C168.552 198.531 168.604 198.854 168.688 199.188C168.792 199.5 168.917 199.823 169.062 200.156C169.229 200.469 169.375 200.781 169.5 201.094C169.833 201.177 170.042 201.219 170.125 201.219C170.167 201.24 170.219 201.25 170.281 201.25C170.344 201.25 170.396 201.25 170.438 201.25C170.854 201.292 171.229 201.281 171.562 201.219C171.792 201.219 172.083 201.177 172.438 201.094C172.979 200.99 173.5 200.854 174 200.688C174.5 200.5 174.958 200.302 175.375 200.094C175.854 199.865 176.323 199.615 176.781 199.344C177.24 199.073 177.625 198.792 177.938 198.5C178.146 198.312 178.344 198.115 178.531 197.906C178.635 197.802 178.708 197.719 178.75 197.656C178.854 197.51 178.938 197.406 179 197.344C179.062 197.26 179.115 197.167 179.156 197.062C179.24 196.917 179.281 196.802 179.281 196.719C179.302 196.677 179.312 196.625 179.312 196.562C179.333 196.5 179.354 196.448 179.375 196.406V196.062C179.354 195.979 179.344 195.917 179.344 195.875C179.344 195.833 179.333 195.792 179.312 195.75C179.25 195.604 179.188 195.5 179.125 195.438C179.083 195.354 179.031 195.271 178.969 195.188C178.99 195.208 178.958 195.177 178.875 195.094C178.812 195.01 178.771 194.958 178.75 194.938L178.5 194.688C178.396 194.625 178.281 194.552 178.156 194.469C178.031 194.385 177.906 194.323 177.781 194.281ZM187 204.469C186.521 204.115 186.083 203.719 185.688 203.281C185.312 202.823 184.969 202.344 184.656 201.844C184.365 201.406 184.083 200.938 183.812 200.438C183.542 199.938 183.302 199.427 183.094 198.906C182.885 198.385 182.719 197.854 182.594 197.312C182.49 196.771 182.458 196.229 182.5 195.688C182.562 194.625 182.667 193.583 182.812 192.562C182.979 191.521 183.198 190.5 183.469 189.5C183.552 189.125 183.656 188.708 183.781 188.25C183.906 187.792 184.062 187.354 184.25 186.938C184.458 186.5 184.698 186.104 184.969 185.75C185.24 185.396 185.583 185.125 186 184.938C186.625 184.667 187.25 184.573 187.875 184.656C188.5 184.719 189.104 184.885 189.688 185.156C190.292 185.427 190.865 185.76 191.406 186.156C191.948 186.531 192.458 186.906 192.938 187.281C193.375 187.635 193.802 188.01 194.219 188.406C194.656 188.781 195.104 189.146 195.562 189.5C196.104 189.979 196.646 190.458 197.188 190.938C197.75 191.417 198.208 191.969 198.562 192.594C198.979 193.302 199.219 194.021 199.281 194.75C199.344 195.458 199.292 196.167 199.125 196.875C198.958 197.562 198.698 198.24 198.344 198.906C197.99 199.573 197.604 200.219 197.188 200.844C196.812 201.385 196.375 201.958 195.875 202.562C195.396 203.167 194.854 203.719 194.25 204.219C193.667 204.719 193.031 205.115 192.344 205.406C191.677 205.698 190.969 205.802 190.219 205.719C189.781 205.656 189.458 205.49 189.25 205.219C188.854 205.156 188.469 205.073 188.094 204.969C187.719 204.865 187.354 204.698 187 204.469ZM185 195.469C184.958 195.99 184.979 196.469 185.062 196.906C185.167 197.344 185.333 197.833 185.562 198.375C185.854 198.979 186.177 199.594 186.531 200.219C186.885 200.823 187.302 201.375 187.781 201.875C188.198 202.333 188.677 202.615 189.219 202.719C189.573 202.781 189.917 202.844 190.25 202.906C190.583 202.948 190.917 203.021 191.25 203.125C191.375 203.083 191.5 203.042 191.625 203C191.75 202.938 191.875 202.854 192 202.75C192.354 202.521 192.677 202.271 192.969 202C193.26 201.729 193.542 201.448 193.812 201.156C194.333 200.573 194.833 199.938 195.312 199.25C195.812 198.562 196.208 197.854 196.5 197.125C196.792 196.396 196.906 195.708 196.844 195.062C196.781 194.417 196.479 193.792 195.938 193.188C195.438 192.625 194.885 192.115 194.281 191.656C193.698 191.177 193.125 190.698 192.562 190.219C192.083 189.802 191.615 189.406 191.156 189.031C190.698 188.656 190.198 188.302 189.656 187.969C189.156 187.635 188.667 187.385 188.188 187.219C188.125 187.198 188.062 187.188 188 187.188C187.958 187.167 187.906 187.146 187.844 187.125L187.375 187.094C187.208 187.135 187.104 187.177 187.062 187.219C186.917 187.385 186.833 187.469 186.812 187.469C186.667 187.719 186.573 187.896 186.531 188C186.49 188.104 186.427 188.271 186.344 188.5C186.135 189.104 185.958 189.719 185.812 190.344C185.667 190.948 185.542 191.552 185.438 192.156C185.333 192.76 185.24 193.312 185.156 193.812C185.094 194.312 185.042 194.865 185 195.469ZM201.031 187.906C200.99 187.573 200.938 187.25 200.875 186.938C200.833 186.625 200.802 186.312 200.781 186C200.74 185.625 200.729 185.229 200.75 184.812C200.792 184.396 200.875 184 201 183.625C201.146 183.25 201.344 182.917 201.594 182.625C201.844 182.333 202.188 182.125 202.625 182C203.292 181.812 203.969 181.844 204.656 182.094C205.344 182.323 205.99 182.583 206.594 182.875C207.177 183.167 207.75 183.479 208.312 183.812C208.875 184.146 209.458 184.458 210.062 184.75C210.375 184.896 210.688 185.052 211 185.219C211.312 185.385 211.583 185.583 211.812 185.812C212.062 186.021 212.26 186.281 212.406 186.594C212.573 186.885 212.667 187.229 212.688 187.625C212.708 188.042 212.635 188.448 212.469 188.844C212.323 189.24 212.167 189.625 212 190C211.062 192.083 209.865 194.031 208.406 195.844C207.865 196.51 207.25 197.135 206.562 197.719C205.896 198.281 205.135 198.646 204.281 198.812C204.469 200 204.677 201.167 204.906 202.312C205.156 203.458 205.438 204.615 205.75 205.781C205.854 206.177 205.802 206.5 205.594 206.75C205.406 207.021 205.167 207.198 204.875 207.281C204.583 207.365 204.281 207.344 203.969 207.219C203.656 207.094 203.448 206.833 203.344 206.438C202.677 203.896 202.167 201.354 201.812 198.812C201.458 196.25 201.229 193.646 201.125 191C201.104 190.646 201.094 190.302 201.094 189.969C201.094 189.635 201.083 189.292 201.062 188.938C201.062 188.792 201.062 188.656 201.062 188.531C201.062 188.385 201.052 188.25 201.031 188.125V187.906ZM203.25 184.875C203.229 185.333 203.25 185.823 203.312 186.344C203.333 186.573 203.344 186.719 203.344 186.781C203.365 186.844 203.375 186.896 203.375 186.938L203.469 187.5C203.531 188.125 203.562 188.76 203.562 189.406C203.604 190.323 203.635 191.24 203.656 192.156C203.698 193.052 203.76 193.958 203.844 194.875C203.865 195.125 203.875 195.375 203.875 195.625C203.896 195.875 203.927 196.115 203.969 196.344C204.177 196.281 204.323 196.229 204.406 196.188C204.49 196.125 204.573 196.073 204.656 196.031C204.781 195.948 204.875 195.875 204.938 195.812C205.458 195.396 205.896 194.979 206.25 194.562C206.604 194.146 206.938 193.719 207.25 193.281C207.938 192.323 208.552 191.333 209.094 190.312C209.198 190.083 209.302 189.875 209.406 189.688C209.51 189.479 209.615 189.26 209.719 189.031C209.76 188.927 209.802 188.833 209.844 188.75C209.885 188.667 209.927 188.573 209.969 188.469C210.073 188.219 210.146 188.01 210.188 187.844C210.188 187.698 210.156 187.594 210.094 187.531C209.802 187.365 209.583 187.25 209.438 187.188C208.833 186.896 208.25 186.604 207.688 186.312C207.125 186 206.542 185.677 205.938 185.344C205.646 185.177 205.344 185.021 205.031 184.875C204.74 184.729 204.427 184.604 204.094 184.5C204.031 184.479 203.958 184.458 203.875 184.438C203.812 184.417 203.75 184.406 203.688 184.406C203.542 184.385 203.458 184.385 203.438 184.406C203.417 184.406 203.396 184.406 203.375 184.406C203.333 184.469 203.302 184.531 203.281 184.594C203.281 184.656 203.271 184.708 203.25 184.75V184.875ZM219.844 193.219C220.823 193.573 221.76 193.99 222.656 194.469C223.573 194.927 224.396 195.531 225.125 196.281C225.354 196.51 225.479 196.812 225.5 197.188C225.521 197.542 225.396 197.833 225.125 198.062C224.312 198.729 223.427 199.292 222.469 199.75C221.531 200.188 220.594 200.656 219.656 201.156C218.927 201.573 218.208 202 217.5 202.438C216.792 202.875 216.083 203.312 215.375 203.75C215.021 203.958 214.688 204.01 214.375 203.906C214.083 203.781 213.854 203.583 213.688 203.312C213.542 203.042 213.49 202.74 213.531 202.406C213.573 202.073 213.76 201.802 214.094 201.594C214.823 201.156 215.542 200.719 216.25 200.281C216.958 199.844 217.677 199.427 218.406 199.031C219.01 198.677 219.646 198.354 220.312 198.062C220.979 197.771 221.615 197.448 222.219 197.094C221.719 196.74 221.188 196.448 220.625 196.219C220.062 195.969 219.479 195.74 218.875 195.531C218 195.219 217.146 194.906 216.312 194.594C215.5 194.26 214.646 193.979 213.75 193.75C213.354 193.646 213.094 193.448 212.969 193.156C212.844 192.844 212.823 192.542 212.906 192.25C212.99 191.958 213.156 191.719 213.406 191.531C213.677 191.323 214.01 191.26 214.406 191.344C215.344 191.573 216.25 191.865 217.125 192.219C218.021 192.573 218.927 192.906 219.844 193.219Z" fill="#00D8FF"/>
</g>
<path d="M132.634 141.301C137.206 141.301 140.911 137.595 140.911 133.024C140.911 128.453 137.206 124.747 132.634 124.747C128.063 124.747 124.357 128.453 124.357 133.024C124.357 137.595 128.063 141.301 132.634 141.301Z" fill="#00D8FF"/>
<path fill-rule="evenodd" clip-rule="evenodd" d="M132.634 116.195C143.747 116.195 154.071 117.79 161.855 120.469C171.234 123.698 177 128.592 177 133.024C177 137.642 170.889 142.841 160.817 146.178C153.203 148.701 143.184 150.018 132.634 150.018C121.819 150.018 111.577 148.782 103.877 146.15C94.1351 142.821 88.2675 137.554 88.2675 133.024C88.2675 128.628 93.7731 123.772 103.02 120.548C110.833 117.824 121.411 116.195 132.633 116.195H132.634Z" stroke="#01CDF5" stroke-width="2.73408"/>
<path fill-rule="evenodd" clip-rule="evenodd" d="M117.984 124.658C123.536 115.031 130.075 106.885 136.285 101.481C143.767 94.9691 150.888 92.419 154.726 94.6327C158.727 96.9397 160.178 104.831 158.037 115.223C156.42 123.079 152.554 132.416 147.284 141.555C141.881 150.924 135.693 159.179 129.568 164.533C121.817 171.309 114.323 173.761 110.399 171.498C106.591 169.303 105.135 162.107 106.961 152.486C108.505 144.357 112.378 134.379 117.983 124.658L117.984 124.658Z" stroke="#01CDF5" stroke-width="2.73408"/>
<path fill-rule="evenodd" clip-rule="evenodd" d="M117.998 141.579C112.431 131.963 108.64 122.228 107.058 114.149C105.153 104.415 106.5 96.9722 110.335 94.7522C114.332 92.4384 121.893 95.1224 129.827 102.167C135.825 107.493 141.985 115.504 147.27 124.634C152.689 133.994 156.75 143.477 158.33 151.458C160.329 161.557 158.711 169.274 154.791 171.544C150.987 173.746 144.025 171.414 136.602 165.026C130.331 159.63 123.621 151.291 117.998 141.579V141.579Z" stroke="#01CDF5" stroke-width="2.73408"/>
<defs>
<filter id="filter0_d_115_44" x="39.1875" y="50.4375" width="146.625" height="33.9688" filterUnits="userSpaceOnUse" color-interpolation-filters="sRGB">
<feFlood flood-opacity="0" result="BackgroundImageFix"/>
<feColorMatrix in="SourceAlpha" type="matrix" values="0 0 0 0 0 0 0 0 0 0 0 0 0 0 0 0 0 0 127 0" result="hardAlpha"/>
<feOffset dy="4"/>
<feGaussianBlur stdDeviation="2"/>
<feComposite in2="hardAlpha" operator="out"/>
<feColorMatrix type="matrix" values="0 0 0 0 0 0 0 0 0 0.28 0 0 0 0 1 0 0 0 0.65 0"/>
<feBlend mode="normal" in2="BackgroundImageFix" result="effect1_dropShadow_115_44"/>
<feBlend mode="normal" in="SourceGraphic" in2="effect1_dropShadow_115_44" result="shape"/>
</filter>
<filter id="filter1_d_115_44" x="73.1875" y="181.719" width="156.344" height="33.6875" filterUnits="userSpaceOnUse" color-interpolation-filters="sRGB">
<feFlood flood-opacity="0" result="BackgroundImageFix"/>
<feColorMatrix in="SourceAlpha" type="matrix" values="0 0 0 0 0 0 0 0 0 0 0 0 0 0 0 0 0 0 127 0" result="hardAlpha"/>
<feOffset dy="4"/>
<feGaussianBlur stdDeviation="2"/>
<feComposite in2="hardAlpha" operator="out"/>
<feColorMatrix type="matrix" values="0 0 0 0 0 0 0 0 0 0.28 0 0 0 0 1 0 0 0 0.65 0"/>
<feBlend mode="normal" in2="BackgroundImageFix" result="effect1_dropShadow_115_44"/>
<feBlend mode="normal" in="SourceGraphic" in2="effect1_dropShadow_115_44" result="shape"/>
</filter>
</defs>
</svg>
